<mxfile host="app.diagrams.net" modified="2024-04-13T21:55:55.791Z" agent="Mozilla/5.0 (Windows NT 10.0; Win64; x64) AppleWebKit/537.36 (KHTML, like Gecko) Chrome/123.0.0.0 Safari/537.36" etag="0qoG-8V6ytTRixY4hU9S" version="24.2.3" type="github">
  <diagram id="C5RBs43oDa-KdzZeNtuy" name="Page-1">
    <mxGraphModel dx="1994" dy="1749" grid="1" gridSize="10" guides="1" tooltips="1" connect="1" arrows="1" fold="1" page="1" pageScale="1" pageWidth="827" pageHeight="1169" math="0" shadow="0">
      <root>
        <mxCell id="WIyWlLk6GJQsqaUBKTNV-0" />
        <mxCell id="WIyWlLk6GJQsqaUBKTNV-1" parent="WIyWlLk6GJQsqaUBKTNV-0" />
        <mxCell id="yWQYi5Np3CBm6QukI8_1-5" value="" style="group" vertex="1" connectable="0" parent="WIyWlLk6GJQsqaUBKTNV-1">
          <mxGeometry x="170" y="-180" width="609.17" height="470" as="geometry" />
        </mxCell>
        <mxCell id="yWQYi5Np3CBm6QukI8_1-1" value="" style="shape=folder;tabWidth=70;tabHeight=20;tabPosition=left;strokeWidth=2;html=1;whiteSpace=wrap;align=center;" vertex="1" parent="yWQYi5Np3CBm6QukI8_1-5">
          <mxGeometry width="609.17" height="470" as="geometry" />
        </mxCell>
        <mxCell id="yWQYi5Np3CBm6QukI8_1-4" value="&lt;font style=&quot;font-size: 14px;&quot;&gt;c&lt;/font&gt;&lt;span style=&quot;font-size: 14px; background-color: initial;&quot;&gt;ontroller&lt;/span&gt;" style="text;html=1;align=center;verticalAlign=middle;whiteSpace=wrap;rounded=0;" vertex="1" parent="yWQYi5Np3CBm6QukI8_1-5">
          <mxGeometry x="244.37633720930233" y="42.5" width="120.41732558139535" height="56.66666666666667" as="geometry" />
        </mxCell>
        <mxCell id="yWQYi5Np3CBm6QukI8_1-7" value="&lt;i&gt;ContratacaoFactory&lt;/i&gt;" style="swimlane;fontStyle=1;align=center;verticalAlign=top;childLayout=stackLayout;horizontal=1;startSize=30;horizontalStack=0;resizeParent=1;resizeParentMax=0;resizeLast=0;collapsible=1;marginBottom=0;whiteSpace=wrap;html=1;" vertex="1" parent="yWQYi5Np3CBm6QukI8_1-5">
          <mxGeometry x="120" y="99.17" width="210" height="62" as="geometry" />
        </mxCell>
        <mxCell id="yWQYi5Np3CBm6QukI8_1-9" value="" style="line;strokeWidth=1;fillColor=none;align=left;verticalAlign=middle;spacingTop=-1;spacingLeft=3;spacingRight=3;rotatable=0;labelPosition=right;points=[];portConstraint=eastwest;strokeColor=inherit;" vertex="1" parent="yWQYi5Np3CBm6QukI8_1-7">
          <mxGeometry y="30" width="210" height="8" as="geometry" />
        </mxCell>
        <mxCell id="yWQYi5Np3CBm6QukI8_1-10" value="+iniciarContratacao(): Funcionario" style="text;strokeColor=none;fillColor=none;align=left;verticalAlign=top;spacingLeft=4;spacingRight=4;overflow=hidden;rotatable=0;points=[[0,0.5],[1,0.5]];portConstraint=eastwest;whiteSpace=wrap;html=1;" vertex="1" parent="yWQYi5Np3CBm6QukI8_1-7">
          <mxGeometry y="38" width="210" height="24" as="geometry" />
        </mxCell>
        <mxCell id="yWQYi5Np3CBm6QukI8_1-11" value="ContratacaoIntegral" style="swimlane;fontStyle=1;align=center;verticalAlign=top;childLayout=stackLayout;horizontal=1;startSize=26;horizontalStack=0;resizeParent=1;resizeParentMax=0;resizeLast=0;collapsible=1;marginBottom=0;whiteSpace=wrap;html=1;" vertex="1" parent="yWQYi5Np3CBm6QukI8_1-5">
          <mxGeometry x="390" y="205" width="200" height="70" as="geometry" />
        </mxCell>
        <mxCell id="yWQYi5Np3CBm6QukI8_1-13" value="" style="line;strokeWidth=1;fillColor=none;align=left;verticalAlign=middle;spacingTop=-1;spacingLeft=3;spacingRight=3;rotatable=0;labelPosition=right;points=[];portConstraint=eastwest;strokeColor=inherit;" vertex="1" parent="yWQYi5Np3CBm6QukI8_1-11">
          <mxGeometry y="26" width="200" height="8" as="geometry" />
        </mxCell>
        <mxCell id="yWQYi5Np3CBm6QukI8_1-14" value="&lt;div&gt;+ContratacaoIntegral()&lt;/div&gt;+iniciarContratacao(): Funcionario" style="text;strokeColor=none;fillColor=none;align=left;verticalAlign=top;spacingLeft=4;spacingRight=4;overflow=hidden;rotatable=0;points=[[0,0.5],[1,0.5]];portConstraint=eastwest;whiteSpace=wrap;html=1;" vertex="1" parent="yWQYi5Np3CBm6QukI8_1-11">
          <mxGeometry y="34" width="200" height="36" as="geometry" />
        </mxCell>
        <mxCell id="yWQYi5Np3CBm6QukI8_1-15" value="ContratacaoParcial" style="swimlane;fontStyle=1;align=center;verticalAlign=top;childLayout=stackLayout;horizontal=1;startSize=26;horizontalStack=0;resizeParent=1;resizeParentMax=0;resizeLast=0;collapsible=1;marginBottom=0;whiteSpace=wrap;html=1;" vertex="1" parent="yWQYi5Np3CBm6QukI8_1-5">
          <mxGeometry x="390" y="300" width="200" height="70" as="geometry" />
        </mxCell>
        <mxCell id="yWQYi5Np3CBm6QukI8_1-16" value="" style="line;strokeWidth=1;fillColor=none;align=left;verticalAlign=middle;spacingTop=-1;spacingLeft=3;spacingRight=3;rotatable=0;labelPosition=right;points=[];portConstraint=eastwest;strokeColor=inherit;" vertex="1" parent="yWQYi5Np3CBm6QukI8_1-15">
          <mxGeometry y="26" width="200" height="8" as="geometry" />
        </mxCell>
        <mxCell id="yWQYi5Np3CBm6QukI8_1-17" value="&lt;div&gt;+ContratacaoParcial()&lt;/div&gt;+iniciarContratacao(): Funcionario" style="text;strokeColor=none;fillColor=none;align=left;verticalAlign=top;spacingLeft=4;spacingRight=4;overflow=hidden;rotatable=0;points=[[0,0.5],[1,0.5]];portConstraint=eastwest;whiteSpace=wrap;html=1;" vertex="1" parent="yWQYi5Np3CBm6QukI8_1-15">
          <mxGeometry y="34" width="200" height="36" as="geometry" />
        </mxCell>
        <mxCell id="yWQYi5Np3CBm6QukI8_1-18" value="ContratacaoTemporario" style="swimlane;fontStyle=1;align=center;verticalAlign=top;childLayout=stackLayout;horizontal=1;startSize=26;horizontalStack=0;resizeParent=1;resizeParentMax=0;resizeLast=0;collapsible=1;marginBottom=0;whiteSpace=wrap;html=1;" vertex="1" parent="yWQYi5Np3CBm6QukI8_1-5">
          <mxGeometry x="390" y="390" width="200" height="70" as="geometry" />
        </mxCell>
        <mxCell id="yWQYi5Np3CBm6QukI8_1-19" value="" style="line;strokeWidth=1;fillColor=none;align=left;verticalAlign=middle;spacingTop=-1;spacingLeft=3;spacingRight=3;rotatable=0;labelPosition=right;points=[];portConstraint=eastwest;strokeColor=inherit;" vertex="1" parent="yWQYi5Np3CBm6QukI8_1-18">
          <mxGeometry y="26" width="200" height="8" as="geometry" />
        </mxCell>
        <mxCell id="yWQYi5Np3CBm6QukI8_1-20" value="&lt;div&gt;+ContratacaoTemporario()&lt;/div&gt;+iniciarContratacao(): Funcionario" style="text;strokeColor=none;fillColor=none;align=left;verticalAlign=top;spacingLeft=4;spacingRight=4;overflow=hidden;rotatable=0;points=[[0,0.5],[1,0.5]];portConstraint=eastwest;whiteSpace=wrap;html=1;" vertex="1" parent="yWQYi5Np3CBm6QukI8_1-18">
          <mxGeometry y="34" width="200" height="36" as="geometry" />
        </mxCell>
        <mxCell id="yWQYi5Np3CBm6QukI8_1-21" value="" style="endArrow=block;endSize=16;endFill=0;html=1;rounded=0;exitX=0;exitY=0.5;exitDx=0;exitDy=0;entryX=0.502;entryY=0.998;entryDx=0;entryDy=0;entryPerimeter=0;" edge="1" parent="yWQYi5Np3CBm6QukI8_1-5" source="yWQYi5Np3CBm6QukI8_1-20" target="yWQYi5Np3CBm6QukI8_1-10">
          <mxGeometry width="160" relative="1" as="geometry">
            <mxPoint x="190" y="360" as="sourcePoint" />
            <mxPoint x="350" y="360" as="targetPoint" />
            <Array as="points">
              <mxPoint x="225" y="442" />
            </Array>
          </mxGeometry>
        </mxCell>
        <mxCell id="yWQYi5Np3CBm6QukI8_1-22" value="" style="endArrow=block;endSize=16;endFill=0;html=1;rounded=0;exitX=0;exitY=0.5;exitDx=0;exitDy=0;entryX=0.499;entryY=1.004;entryDx=0;entryDy=0;entryPerimeter=0;" edge="1" parent="yWQYi5Np3CBm6QukI8_1-5" source="yWQYi5Np3CBm6QukI8_1-17" target="yWQYi5Np3CBm6QukI8_1-10">
          <mxGeometry width="160" relative="1" as="geometry">
            <mxPoint x="40" y="290" as="sourcePoint" />
            <mxPoint x="200" y="290" as="targetPoint" />
            <Array as="points">
              <mxPoint x="225" y="352" />
            </Array>
          </mxGeometry>
        </mxCell>
        <mxCell id="yWQYi5Np3CBm6QukI8_1-23" value="" style="endArrow=block;endSize=16;endFill=0;html=1;rounded=0;exitX=0;exitY=0.5;exitDx=0;exitDy=0;entryX=0.5;entryY=0.998;entryDx=0;entryDy=0;entryPerimeter=0;" edge="1" parent="yWQYi5Np3CBm6QukI8_1-5" source="yWQYi5Np3CBm6QukI8_1-14" target="yWQYi5Np3CBm6QukI8_1-10">
          <mxGeometry width="160" relative="1" as="geometry">
            <mxPoint x="230" y="300" as="sourcePoint" />
            <mxPoint x="390" y="300" as="targetPoint" />
            <Array as="points">
              <mxPoint x="225" y="257" />
            </Array>
          </mxGeometry>
        </mxCell>
        <mxCell id="yWQYi5Np3CBm6QukI8_1-25" value="" style="group" vertex="1" connectable="0" parent="WIyWlLk6GJQsqaUBKTNV-1">
          <mxGeometry x="-540" y="-170" width="609.17" height="470" as="geometry" />
        </mxCell>
        <mxCell id="yWQYi5Np3CBm6QukI8_1-26" value="" style="shape=folder;tabWidth=70;tabHeight=20;tabPosition=left;strokeWidth=2;html=1;whiteSpace=wrap;align=center;" vertex="1" parent="yWQYi5Np3CBm6QukI8_1-25">
          <mxGeometry x="220" width="360" height="230" as="geometry" />
        </mxCell>
        <mxCell id="yWQYi5Np3CBm6QukI8_1-27" value="&lt;span style=&quot;font-size: 14px;&quot;&gt;view&lt;/span&gt;" style="text;html=1;align=center;verticalAlign=middle;whiteSpace=wrap;rounded=0;" vertex="1" parent="yWQYi5Np3CBm6QukI8_1-25">
          <mxGeometry x="339.78633720930236" y="30" width="120.41732558139535" height="56.66666666666667" as="geometry" />
        </mxCell>
        <mxCell id="yWQYi5Np3CBm6QukI8_1-31" value="Principal" style="swimlane;fontStyle=1;align=center;verticalAlign=top;childLayout=stackLayout;horizontal=1;startSize=26;horizontalStack=0;resizeParent=1;resizeParentMax=0;resizeLast=0;collapsible=1;marginBottom=0;whiteSpace=wrap;html=1;" vertex="1" parent="yWQYi5Np3CBm6QukI8_1-25">
          <mxGeometry x="350" y="110" width="200" height="70" as="geometry" />
        </mxCell>
        <mxCell id="yWQYi5Np3CBm6QukI8_1-32" value="" style="line;strokeWidth=1;fillColor=none;align=left;verticalAlign=middle;spacingTop=-1;spacingLeft=3;spacingRight=3;rotatable=0;labelPosition=right;points=[];portConstraint=eastwest;strokeColor=inherit;" vertex="1" parent="yWQYi5Np3CBm6QukI8_1-31">
          <mxGeometry y="26" width="200" height="8" as="geometry" />
        </mxCell>
        <mxCell id="yWQYi5Np3CBm6QukI8_1-33" value="+main()" style="text;strokeColor=none;fillColor=none;align=left;verticalAlign=top;spacingLeft=4;spacingRight=4;overflow=hidden;rotatable=0;points=[[0,0.5],[1,0.5]];portConstraint=eastwest;whiteSpace=wrap;html=1;" vertex="1" parent="yWQYi5Np3CBm6QukI8_1-31">
          <mxGeometry y="34" width="200" height="36" as="geometry" />
        </mxCell>
        <mxCell id="yWQYi5Np3CBm6QukI8_1-43" value="" style="group" vertex="1" connectable="0" parent="WIyWlLk6GJQsqaUBKTNV-1">
          <mxGeometry x="180" y="340" width="609.17" height="665" as="geometry" />
        </mxCell>
        <mxCell id="yWQYi5Np3CBm6QukI8_1-44" value="" style="shape=folder;tabWidth=70;tabHeight=20;tabPosition=left;strokeWidth=2;html=1;whiteSpace=wrap;align=center;" vertex="1" parent="yWQYi5Np3CBm6QukI8_1-43">
          <mxGeometry width="609.17" height="470" as="geometry" />
        </mxCell>
        <mxCell id="yWQYi5Np3CBm6QukI8_1-45" value="model" style="text;html=1;align=center;verticalAlign=middle;whiteSpace=wrap;rounded=0;" vertex="1" parent="yWQYi5Np3CBm6QukI8_1-43">
          <mxGeometry x="244.37633720930233" y="42.5" width="120.41732558139535" height="56.66666666666667" as="geometry" />
        </mxCell>
        <mxCell id="yWQYi5Np3CBm6QukI8_1-61" value="&lt;i&gt;Funcionario&lt;/i&gt;" style="swimlane;fontStyle=1;align=center;verticalAlign=top;childLayout=stackLayout;horizontal=1;startSize=26;horizontalStack=0;resizeParent=1;resizeParentMax=0;resizeLast=0;collapsible=1;marginBottom=0;whiteSpace=wrap;html=1;" vertex="1" parent="yWQYi5Np3CBm6QukI8_1-43">
          <mxGeometry x="224.57999999999998" y="110" width="160" height="130" as="geometry" />
        </mxCell>
        <mxCell id="yWQYi5Np3CBm6QukI8_1-62" value="-id: int&lt;div&gt;-nome: String&lt;/div&gt;&lt;div&gt;-salario: float&lt;/div&gt;" style="text;strokeColor=none;fillColor=none;align=left;verticalAlign=top;spacingLeft=4;spacingRight=4;overflow=hidden;rotatable=0;points=[[0,0.5],[1,0.5]];portConstraint=eastwest;whiteSpace=wrap;html=1;" vertex="1" parent="yWQYi5Np3CBm6QukI8_1-61">
          <mxGeometry y="26" width="160" height="54" as="geometry" />
        </mxCell>
        <mxCell id="yWQYi5Np3CBm6QukI8_1-63" value="" style="line;strokeWidth=1;fillColor=none;align=left;verticalAlign=middle;spacingTop=-1;spacingLeft=3;spacingRight=3;rotatable=0;labelPosition=right;points=[];portConstraint=eastwest;strokeColor=inherit;" vertex="1" parent="yWQYi5Np3CBm6QukI8_1-61">
          <mxGeometry y="80" width="160" height="8" as="geometry" />
        </mxCell>
        <mxCell id="yWQYi5Np3CBm6QukI8_1-64" value="+setters()&lt;div&gt;+getters()&lt;/div&gt;" style="text;strokeColor=none;fillColor=none;align=left;verticalAlign=top;spacingLeft=4;spacingRight=4;overflow=hidden;rotatable=0;points=[[0,0.5],[1,0.5]];portConstraint=eastwest;whiteSpace=wrap;html=1;" vertex="1" parent="yWQYi5Np3CBm6QukI8_1-61">
          <mxGeometry y="88" width="160" height="42" as="geometry" />
        </mxCell>
        <mxCell id="yWQYi5Np3CBm6QukI8_1-65" value="TempoIntegral" style="swimlane;fontStyle=1;align=center;verticalAlign=top;childLayout=stackLayout;horizontal=1;startSize=26;horizontalStack=0;resizeParent=1;resizeParentMax=0;resizeLast=0;collapsible=1;marginBottom=0;whiteSpace=wrap;html=1;" vertex="1" parent="yWQYi5Np3CBm6QukI8_1-43">
          <mxGeometry x="430" y="320" width="160" height="110" as="geometry" />
        </mxCell>
        <mxCell id="yWQYi5Np3CBm6QukI8_1-66" value="-banco: int" style="text;strokeColor=none;fillColor=none;align=left;verticalAlign=top;spacingLeft=4;spacingRight=4;overflow=hidden;rotatable=0;points=[[0,0.5],[1,0.5]];portConstraint=eastwest;whiteSpace=wrap;html=1;" vertex="1" parent="yWQYi5Np3CBm6QukI8_1-65">
          <mxGeometry y="26" width="160" height="24" as="geometry" />
        </mxCell>
        <mxCell id="yWQYi5Np3CBm6QukI8_1-67" value="" style="line;strokeWidth=1;fillColor=none;align=left;verticalAlign=middle;spacingTop=-1;spacingLeft=3;spacingRight=3;rotatable=0;labelPosition=right;points=[];portConstraint=eastwest;strokeColor=inherit;" vertex="1" parent="yWQYi5Np3CBm6QukI8_1-65">
          <mxGeometry y="50" width="160" height="8" as="geometry" />
        </mxCell>
        <mxCell id="yWQYi5Np3CBm6QukI8_1-68" value="&lt;div&gt;+TempoIntegral()&lt;/div&gt;+setters()&lt;div&gt;+getters()&lt;/div&gt;" style="text;strokeColor=none;fillColor=none;align=left;verticalAlign=top;spacingLeft=4;spacingRight=4;overflow=hidden;rotatable=0;points=[[0,0.5],[1,0.5]];portConstraint=eastwest;whiteSpace=wrap;html=1;" vertex="1" parent="yWQYi5Np3CBm6QukI8_1-65">
          <mxGeometry y="58" width="160" height="52" as="geometry" />
        </mxCell>
        <mxCell id="yWQYi5Np3CBm6QukI8_1-70" value="TempoParcial" style="swimlane;fontStyle=1;align=center;verticalAlign=top;childLayout=stackLayout;horizontal=1;startSize=26;horizontalStack=0;resizeParent=1;resizeParentMax=0;resizeLast=0;collapsible=1;marginBottom=0;whiteSpace=wrap;html=1;" vertex="1" parent="yWQYi5Np3CBm6QukI8_1-43">
          <mxGeometry x="224.57999999999998" y="320" width="160" height="120" as="geometry" />
        </mxCell>
        <mxCell id="yWQYi5Np3CBm6QukI8_1-71" value="-horaEntrada: int&lt;div&gt;-horaSaida: int&lt;/div&gt;" style="text;strokeColor=none;fillColor=none;align=left;verticalAlign=top;spacingLeft=4;spacingRight=4;overflow=hidden;rotatable=0;points=[[0,0.5],[1,0.5]];portConstraint=eastwest;whiteSpace=wrap;html=1;" vertex="1" parent="yWQYi5Np3CBm6QukI8_1-70">
          <mxGeometry y="26" width="160" height="34" as="geometry" />
        </mxCell>
        <mxCell id="yWQYi5Np3CBm6QukI8_1-72" value="" style="line;strokeWidth=1;fillColor=none;align=left;verticalAlign=middle;spacingTop=-1;spacingLeft=3;spacingRight=3;rotatable=0;labelPosition=right;points=[];portConstraint=eastwest;strokeColor=inherit;" vertex="1" parent="yWQYi5Np3CBm6QukI8_1-70">
          <mxGeometry y="60" width="160" height="8" as="geometry" />
        </mxCell>
        <mxCell id="yWQYi5Np3CBm6QukI8_1-73" value="&lt;div&gt;+TempoParcial()&lt;/div&gt;+setters()&lt;div&gt;+getters()&lt;/div&gt;" style="text;strokeColor=none;fillColor=none;align=left;verticalAlign=top;spacingLeft=4;spacingRight=4;overflow=hidden;rotatable=0;points=[[0,0.5],[1,0.5]];portConstraint=eastwest;whiteSpace=wrap;html=1;" vertex="1" parent="yWQYi5Np3CBm6QukI8_1-70">
          <mxGeometry y="68" width="160" height="52" as="geometry" />
        </mxCell>
        <mxCell id="yWQYi5Np3CBm6QukI8_1-74" value="Temporario" style="swimlane;fontStyle=1;align=center;verticalAlign=top;childLayout=stackLayout;horizontal=1;startSize=26;horizontalStack=0;resizeParent=1;resizeParentMax=0;resizeLast=0;collapsible=1;marginBottom=0;whiteSpace=wrap;html=1;" vertex="1" parent="yWQYi5Np3CBm6QukI8_1-43">
          <mxGeometry x="10" y="320" width="160" height="140" as="geometry" />
        </mxCell>
        <mxCell id="yWQYi5Np3CBm6QukI8_1-75" value="-dia: int&lt;div&gt;-mes: int&lt;/div&gt;&lt;div&gt;-ano: int&lt;/div&gt;" style="text;strokeColor=none;fillColor=none;align=left;verticalAlign=top;spacingLeft=4;spacingRight=4;overflow=hidden;rotatable=0;points=[[0,0.5],[1,0.5]];portConstraint=eastwest;whiteSpace=wrap;html=1;" vertex="1" parent="yWQYi5Np3CBm6QukI8_1-74">
          <mxGeometry y="26" width="160" height="54" as="geometry" />
        </mxCell>
        <mxCell id="yWQYi5Np3CBm6QukI8_1-76" value="" style="line;strokeWidth=1;fillColor=none;align=left;verticalAlign=middle;spacingTop=-1;spacingLeft=3;spacingRight=3;rotatable=0;labelPosition=right;points=[];portConstraint=eastwest;strokeColor=inherit;" vertex="1" parent="yWQYi5Np3CBm6QukI8_1-74">
          <mxGeometry y="80" width="160" height="8" as="geometry" />
        </mxCell>
        <mxCell id="yWQYi5Np3CBm6QukI8_1-77" value="&lt;div&gt;+Temporario()&lt;/div&gt;+setters()&lt;div&gt;+getters()&lt;/div&gt;" style="text;strokeColor=none;fillColor=none;align=left;verticalAlign=top;spacingLeft=4;spacingRight=4;overflow=hidden;rotatable=0;points=[[0,0.5],[1,0.5]];portConstraint=eastwest;whiteSpace=wrap;html=1;" vertex="1" parent="yWQYi5Np3CBm6QukI8_1-74">
          <mxGeometry y="88" width="160" height="52" as="geometry" />
        </mxCell>
        <mxCell id="yWQYi5Np3CBm6QukI8_1-78" value="" style="endArrow=block;endSize=16;endFill=0;html=1;rounded=0;exitX=0.5;exitY=0;exitDx=0;exitDy=0;entryX=0;entryY=0.5;entryDx=0;entryDy=0;" edge="1" parent="yWQYi5Np3CBm6QukI8_1-43" source="yWQYi5Np3CBm6QukI8_1-74" target="yWQYi5Np3CBm6QukI8_1-64">
          <mxGeometry width="160" relative="1" as="geometry">
            <mxPoint x="190" y="350" as="sourcePoint" />
            <mxPoint x="350" y="350" as="targetPoint" />
          </mxGeometry>
        </mxCell>
        <mxCell id="yWQYi5Np3CBm6QukI8_1-79" value="" style="endArrow=block;endSize=16;endFill=0;html=1;rounded=0;exitX=0.5;exitY=0;exitDx=0;exitDy=0;entryX=0.498;entryY=1.019;entryDx=0;entryDy=0;entryPerimeter=0;" edge="1" parent="yWQYi5Np3CBm6QukI8_1-43" source="yWQYi5Np3CBm6QukI8_1-70" target="yWQYi5Np3CBm6QukI8_1-64">
          <mxGeometry width="160" relative="1" as="geometry">
            <mxPoint x="190" y="350" as="sourcePoint" />
            <mxPoint x="350" y="350" as="targetPoint" />
          </mxGeometry>
        </mxCell>
        <mxCell id="yWQYi5Np3CBm6QukI8_1-80" value="" style="endArrow=block;endSize=16;endFill=0;html=1;rounded=0;exitX=0.5;exitY=0;exitDx=0;exitDy=0;entryX=1;entryY=0.5;entryDx=0;entryDy=0;" edge="1" parent="yWQYi5Np3CBm6QukI8_1-43" source="yWQYi5Np3CBm6QukI8_1-65" target="yWQYi5Np3CBm6QukI8_1-64">
          <mxGeometry width="160" relative="1" as="geometry">
            <mxPoint x="190" y="350" as="sourcePoint" />
            <mxPoint x="350" y="350" as="targetPoint" />
          </mxGeometry>
        </mxCell>
      </root>
    </mxGraphModel>
  </diagram>
</mxfile>
